<svg width="512" height="512" viewBox="0 0 512 512" fill="none" xmlns="http://www.w3.org/2000/svg">
  <path d="M256 64C150.13 64 64 150.13 64 256s86.13 192 192 192 192-86.13 192-192S361.87 64 256 64zm91.31 283.31l-45.25 45.25L256 346.5l-46.06 46.06-45.25-45.25L210.75 301l-46.06-46.06 45.25-45.25L256 255.75l46.06-46.06 45.25 45.25L301.25 301l46.06 46.06z" fill="#FFE600"/>
  <path d="M256 128c-70.69 0-128 57.31-128 128s57.31 128 128 128 128-57.31 128-128-57.31-128-128-128zm0 224c-52.94 0-96-43.06-96-96s43.06-96 96-96 96 43.06 96 96-43.06 96-96 96z" fill="#000000"/>
  <path d="M256 192c-35.29 0-64 28.71-64 64s28.71 64 64 64 64-28.71 64-64-28.71-64-64-64zm0 96c-17.64 0-32-14.36-32-32s14.36-32 32-32 32 14.36 32 32-14.36 32-32 32z" fill="#000000"/>
</svg>